<svg width="1024" height="1024" viewBox="0 0 1024 1024" fill="none" xmlns="http://www.w3.org/2000/svg">
<g id="Property 1=Default">
<path id="Code" d="M618.066 618.066C597.088 639.044 570.361 653.33 541.264 659.118C512.166 664.906 482.006 661.935 454.597 650.582C427.189 639.229 403.762 620.003 387.28 595.336C370.797 570.668 362 541.667 362 512C362 482.333 370.797 453.332 387.28 428.664C403.762 403.997 427.189 384.771 454.597 373.418C482.006 362.065 512.166 359.094 541.264 364.882C570.361 370.67 597.088 384.956 618.066 405.934" stroke="#FFD500" stroke-width="100" stroke-linecap="round"/>
<g id="Python">
<path id="queue_python" d="M793 629.515C793 682 724.5 861 513 861V761C711 761 742.5 612.015 760.5 605.015C771.5 599.515 787.5 604.515 793 629.515Z" fill="#336699"/>
<path id="Python_2" d="M512 811C464.815 811 418.299 799.833 376.257 778.411C334.214 756.989 297.839 725.921 270.104 687.748C242.369 649.574 224.063 605.378 216.681 558.774C209.3 512.169 213.053 464.48 227.634 419.604C242.215 374.728 267.21 333.94 300.575 300.575C333.94 267.21 374.728 242.215 419.604 227.634C464.48 213.053 512.17 209.3 558.774 216.681C605.378 224.063 649.574 242.369 687.748 270.104" stroke="#336699" stroke-width="100" stroke-linecap="round"/>
<path id="tete_python" d="M668.5 353.5C622.5 311 642 296 610 283C598.667 243.834 593.561 172.237 615.5 180C648 191.5 671.5 190 711 194.5C758.5 202.5 773.5 242 795 293.5C824 325.5 824.167 338.5 824 346C791.5 402 764 381.5 743.5 378.5C700.5 377 688 366 668.5 353.5Z" fill="#336699"/>
</g>
</g>
</svg>
